# xmcd
#
# Track frame offsets:
#	150
#	12570
#	24591
#	42245
#	56971
#	73416
#	86578
#	100071
#	113410
#	125109
#	137104
#	148084
#	157747
#	169278
#	182780
#	196788
#	211164
#	224266
#	239446
#	251343
#
# Disc length: 3579
#
# Revision: 1
# Processed by: cddbd v1.5.1PL0 Copyright (c) Steve Scherf et al.
# Submitted via: dBpowerAMP V4.0
# Normalized: r0:TRMNUM
#
DISCID=260df914
DTITLE=Forrozão 2004 - Bebo, fumo e não fujo - Bebo, fumo e não fujo
DYEAR=2004
DGENRE=Sertanejo
TTITLE0=Coisa de louco - Romes e Carlinhos
TTITLE1=Quatro beijo - Luis Paulo e Pantanal
TTITLE2=Malícia - Arlan Batista
TTITLE3=Aconteceu - Delley e Dorivan
TTITLE4=Não foje da raia - Bruno e Marlon
TTITLE5=Pra lá que eu vou - Bruno e Marrone
TTITLE6=Carcaça - Erasmo e Eduardo
TTITLE7=Eu te amo demais - Marcos e Fernando
TTITLE8=Louco de saudade - Luiz Paulo e Pantanal
TTITLE9=Quebradeira - Pedro paulo e Paulo Victor
TTITLE10=Fusca a gás - Arlan Batista
TTITLE11=No pique da madrugada - Ruan e Rafael
TTITLE12=Boi tam tam - Barretinho
TTITLE13=É bom demais da conta - Trio Chapahalls
TTITLE14=Meu cenário - Catuaba com Amendoim
TTITLE15=Bailão tá legal - Trio alto astral
TTITLE16=Filho da tuta - Teodoro e Sampaio
TTITLE17=Escorpião - Leonardo
TTITLE18=Arrasta pé - Luis Paulo e Pantanal
TTITLE19=Karaê - Ney e Nando e Teodoro e Sampaio
EXTD=
EXTT0=
EXTT1=
EXTT2=
EXTT3=
EXTT4=
EXTT5=
EXTT6=
EXTT7=
EXTT8=
EXTT9=
EXTT10=
EXTT11=
EXTT12=
EXTT13=
EXTT14=
EXTT15=
EXTT16=
EXTT17=
EXTT18=
EXTT19=
PLAYORDER=
